<mxfile modified="2024-04-14T22:16:33.270Z" host="app.diagrams.net" agent="Mozilla/5.0 (Macintosh; Intel Mac OS X 10_15_7) AppleWebKit/605.1.15 (KHTML, like Gecko) Version/16.5.2 Safari/605.1.15" etag="5jca8NFffhol-cPIXbe3" version="24.2.5" type="device">
  <diagram id="h6BBsZ6_Estit_eACcV3" name="Page-1">
    <mxGraphModel dx="766" dy="1162" grid="1" gridSize="10" guides="1" tooltips="1" connect="1" arrows="1" fold="1" page="1" pageScale="1" pageWidth="850" pageHeight="1100" math="0" shadow="0">
      <root>
        <mxCell id="0" />
        <mxCell id="1" parent="0" />
        <mxCell id="Fo9DGI8NvoBTCOg1Upvk-28" value="" style="endArrow=classic;html=1;strokeColor=#000000;fontColor=#000000;exitX=0;exitY=0.5;exitDx=0;exitDy=0;entryX=0.5;entryY=1;entryDx=0;entryDy=0;" parent="1" source="Fo9DGI8NvoBTCOg1Upvk-11" target="5sOJKM208ey0AX1m5c1y-18" edge="1">
          <mxGeometry width="50" height="50" relative="1" as="geometry">
            <mxPoint x="420" y="630" as="sourcePoint" />
            <mxPoint x="340" y="360" as="targetPoint" />
            <Array as="points">
              <mxPoint x="340" y="350" />
            </Array>
          </mxGeometry>
        </mxCell>
        <mxCell id="5sOJKM208ey0AX1m5c1y-1" value="" style="rounded=1;whiteSpace=wrap;html=1;" parent="1" vertex="1">
          <mxGeometry x="280" y="100" width="120" height="60" as="geometry" />
        </mxCell>
        <mxCell id="5sOJKM208ey0AX1m5c1y-2" value="&lt;font style=&quot;font-size: 14px&quot;&gt;micromamba&lt;/font&gt;" style="text;html=1;strokeColor=none;fillColor=none;align=center;verticalAlign=middle;whiteSpace=wrap;rounded=0;" parent="1" vertex="1">
          <mxGeometry x="320" y="120" width="40" height="20" as="geometry" />
        </mxCell>
        <mxCell id="5sOJKM208ey0AX1m5c1y-9" value="" style="rounded=1;whiteSpace=wrap;html=1;fillColor=#f8cecc;strokeColor=#b85450;" parent="1" vertex="1">
          <mxGeometry x="420" y="460" width="120" height="60" as="geometry" />
        </mxCell>
        <mxCell id="5sOJKM208ey0AX1m5c1y-10" value="&lt;font style=&quot;font-size: 8px&quot;&gt;moonvision/&lt;/font&gt;" style="text;html=1;strokeColor=none;fillColor=none;align=center;verticalAlign=middle;whiteSpace=wrap;rounded=0;" parent="1" vertex="1">
          <mxGeometry x="460" y="460" width="40" height="20" as="geometry" />
        </mxCell>
        <mxCell id="5sOJKM208ey0AX1m5c1y-11" value="&lt;font style=&quot;font-size: 14px&quot;&gt;moonbox:&lt;/font&gt;" style="text;html=1;strokeColor=none;fillColor=none;align=center;verticalAlign=middle;whiteSpace=wrap;rounded=0;" parent="1" vertex="1">
          <mxGeometry x="420" y="480" width="120" height="20" as="geometry" />
        </mxCell>
        <mxCell id="5sOJKM208ey0AX1m5c1y-18" value="" style="rounded=1;whiteSpace=wrap;html=1;fillColor=#dae8fc;strokeColor=#6c8ebf;" parent="1" vertex="1">
          <mxGeometry x="280" y="240" width="120" height="60" as="geometry" />
        </mxCell>
        <mxCell id="5sOJKM208ey0AX1m5c1y-19" value="&lt;font style=&quot;font-size: 8px&quot;&gt;moonvision/&lt;/font&gt;" style="text;html=1;strokeColor=none;fillColor=none;align=center;verticalAlign=middle;whiteSpace=wrap;rounded=0;" parent="1" vertex="1">
          <mxGeometry x="320" y="240" width="40" height="20" as="geometry" />
        </mxCell>
        <mxCell id="5sOJKM208ey0AX1m5c1y-20" value="&lt;font style=&quot;font-size: 14px&quot;&gt;python-base&lt;/font&gt;" style="text;html=1;strokeColor=none;fillColor=none;align=center;verticalAlign=middle;whiteSpace=wrap;rounded=0;" parent="1" vertex="1">
          <mxGeometry x="280" y="260" width="120" height="20" as="geometry" />
        </mxCell>
        <mxCell id="5sOJKM208ey0AX1m5c1y-22" value="" style="endArrow=classic;html=1;entryX=0.5;entryY=1;entryDx=0;entryDy=0;" parent="1" target="5sOJKM208ey0AX1m5c1y-1" edge="1">
          <mxGeometry width="50" height="50" relative="1" as="geometry">
            <mxPoint x="340" y="240" as="sourcePoint" />
            <mxPoint x="370" y="190" as="targetPoint" />
          </mxGeometry>
        </mxCell>
        <mxCell id="5sOJKM208ey0AX1m5c1y-24" value="" style="rounded=1;whiteSpace=wrap;html=1;fillColor=#ffe6cc;strokeColor=#d79b00;" parent="1" vertex="1">
          <mxGeometry x="100" y="180" width="120" height="60" as="geometry" />
        </mxCell>
        <mxCell id="5sOJKM208ey0AX1m5c1y-25" value="&lt;font style=&quot;font-size: 8px&quot;&gt;moonvision/&lt;/font&gt;" style="text;html=1;strokeColor=none;fillColor=none;align=center;verticalAlign=middle;whiteSpace=wrap;rounded=0;" parent="1" vertex="1">
          <mxGeometry x="140" y="180" width="40" height="20" as="geometry" />
        </mxCell>
        <mxCell id="5sOJKM208ey0AX1m5c1y-26" value="&lt;font style=&quot;font-size: 14px&quot;&gt;custom-builds:&lt;/font&gt;" style="text;html=1;strokeColor=none;fillColor=none;align=center;verticalAlign=middle;whiteSpace=wrap;rounded=0;" parent="1" vertex="1">
          <mxGeometry x="100" y="200" width="120" height="20" as="geometry" />
        </mxCell>
        <mxCell id="5sOJKM208ey0AX1m5c1y-33" value="" style="rounded=1;whiteSpace=wrap;html=1;fillColor=#ffe6cc;strokeColor=#d79b00;" parent="1" vertex="1">
          <mxGeometry x="100" y="260" width="120" height="60" as="geometry" />
        </mxCell>
        <mxCell id="5sOJKM208ey0AX1m5c1y-34" value="&lt;font style=&quot;font-size: 8px&quot;&gt;moonvision/&lt;/font&gt;" style="text;html=1;strokeColor=none;fillColor=none;align=center;verticalAlign=middle;whiteSpace=wrap;rounded=0;" parent="1" vertex="1">
          <mxGeometry x="140" y="260" width="40" height="20" as="geometry" />
        </mxCell>
        <mxCell id="5sOJKM208ey0AX1m5c1y-35" value="&lt;font style=&quot;font-size: 14px&quot;&gt;custom-builds:&lt;/font&gt;" style="text;html=1;strokeColor=none;fillColor=none;align=center;verticalAlign=middle;whiteSpace=wrap;rounded=0;" parent="1" vertex="1">
          <mxGeometry x="100" y="280" width="120" height="20" as="geometry" />
        </mxCell>
        <mxCell id="5sOJKM208ey0AX1m5c1y-38" value="" style="endArrow=classic;html=1;entryX=0.5;entryY=1;entryDx=0;entryDy=0;exitX=1;exitY=0.5;exitDx=0;exitDy=0;" parent="1" source="5sOJKM208ey0AX1m5c1y-26" target="5sOJKM208ey0AX1m5c1y-1" edge="1">
          <mxGeometry width="50" height="50" relative="1" as="geometry">
            <mxPoint x="200" y="310" as="sourcePoint" />
            <mxPoint x="250" y="260" as="targetPoint" />
            <Array as="points">
              <mxPoint x="240" y="210" />
              <mxPoint x="240" y="190" />
              <mxPoint x="340" y="180" />
            </Array>
          </mxGeometry>
        </mxCell>
        <mxCell id="5sOJKM208ey0AX1m5c1y-42" value="ffmpeg" style="text;html=1;strokeColor=none;fillColor=none;align=center;verticalAlign=middle;whiteSpace=wrap;rounded=0;" parent="1" vertex="1">
          <mxGeometry x="140" y="220" width="40" height="20" as="geometry" />
        </mxCell>
        <mxCell id="5sOJKM208ey0AX1m5c1y-44" value="pytorch" style="text;html=1;strokeColor=none;fillColor=none;align=center;verticalAlign=middle;whiteSpace=wrap;rounded=0;" parent="1" vertex="1">
          <mxGeometry x="140" y="300" width="40" height="20" as="geometry" />
        </mxCell>
        <mxCell id="5sOJKM208ey0AX1m5c1y-49" value="" style="rounded=1;whiteSpace=wrap;html=1;fillColor=#f8cecc;strokeColor=#b85450;" parent="1" vertex="1">
          <mxGeometry x="420" y="380" width="120" height="60" as="geometry" />
        </mxCell>
        <mxCell id="5sOJKM208ey0AX1m5c1y-50" value="&lt;font style=&quot;font-size: 8px&quot;&gt;moonvision/&lt;/font&gt;" style="text;html=1;strokeColor=none;fillColor=none;align=center;verticalAlign=middle;whiteSpace=wrap;rounded=0;" parent="1" vertex="1">
          <mxGeometry x="460" y="380" width="40" height="20" as="geometry" />
        </mxCell>
        <mxCell id="5sOJKM208ey0AX1m5c1y-51" value="&lt;font style=&quot;font-size: 14px&quot;&gt;moonbox:&lt;/font&gt;" style="text;html=1;strokeColor=none;fillColor=none;align=center;verticalAlign=middle;whiteSpace=wrap;rounded=0;" parent="1" vertex="1">
          <mxGeometry x="420" y="400" width="120" height="20" as="geometry" />
        </mxCell>
        <mxCell id="5sOJKM208ey0AX1m5c1y-58" value="" style="endArrow=classic;html=1;strokeColor=#000000;fontColor=#000000;entryX=0.5;entryY=1;entryDx=0;entryDy=0;exitX=0;exitY=0.5;exitDx=0;exitDy=0;" parent="1" source="5sOJKM208ey0AX1m5c1y-51" target="5sOJKM208ey0AX1m5c1y-18" edge="1">
          <mxGeometry width="50" height="50" relative="1" as="geometry">
            <mxPoint x="410" y="460" as="sourcePoint" />
            <mxPoint x="420" y="410" as="targetPoint" />
            <Array as="points">
              <mxPoint x="340" y="390" />
            </Array>
          </mxGeometry>
        </mxCell>
        <mxCell id="5sOJKM208ey0AX1m5c1y-59" value="" style="endArrow=classic;html=1;strokeColor=#000000;fontColor=#000000;exitX=0;exitY=0.5;exitDx=0;exitDy=0;entryX=0.5;entryY=1;entryDx=0;entryDy=0;" parent="1" source="5sOJKM208ey0AX1m5c1y-11" target="5sOJKM208ey0AX1m5c1y-18" edge="1">
          <mxGeometry width="50" height="50" relative="1" as="geometry">
            <mxPoint x="300" y="720" as="sourcePoint" />
            <mxPoint x="350" y="670" as="targetPoint" />
            <Array as="points">
              <mxPoint x="340" y="470" />
              <mxPoint x="340" y="390" />
            </Array>
          </mxGeometry>
        </mxCell>
        <mxCell id="5sOJKM208ey0AX1m5c1y-61" value="mini" style="text;html=1;strokeColor=none;fillColor=none;align=center;verticalAlign=middle;whiteSpace=wrap;rounded=0;fontColor=#000000;" parent="1" vertex="1">
          <mxGeometry x="460" y="420" width="40" height="20" as="geometry" />
        </mxCell>
        <mxCell id="5sOJKM208ey0AX1m5c1y-62" value="genicam" style="text;html=1;strokeColor=none;fillColor=none;align=center;verticalAlign=middle;whiteSpace=wrap;rounded=0;fontColor=#000000;" parent="1" vertex="1">
          <mxGeometry x="460" y="500" width="40" height="20" as="geometry" />
        </mxCell>
        <mxCell id="nl1axL1jYFWtOBtzVMSo-5" value="" style="endArrow=none;dashed=1;html=1;exitX=1;exitY=0.5;exitDx=0;exitDy=0;endFill=0;startArrow=classic;startFill=1;entryX=0;entryY=0.5;entryDx=0;entryDy=0;" parent="1" source="5sOJKM208ey0AX1m5c1y-24" target="5sOJKM208ey0AX1m5c1y-49" edge="1">
          <mxGeometry width="50" height="50" relative="1" as="geometry">
            <mxPoint x="390" y="520" as="sourcePoint" />
            <mxPoint x="420" y="470" as="targetPoint" />
            <Array as="points">
              <mxPoint x="260" y="220" />
              <mxPoint x="260" y="370" />
            </Array>
          </mxGeometry>
        </mxCell>
        <mxCell id="nl1axL1jYFWtOBtzVMSo-6" value="" style="endArrow=classic;dashed=1;html=1;endFill=1;entryX=1;entryY=0.5;entryDx=0;entryDy=0;" parent="1" target="5sOJKM208ey0AX1m5c1y-35" edge="1">
          <mxGeometry width="50" height="50" relative="1" as="geometry">
            <mxPoint x="260" y="420" as="sourcePoint" />
            <mxPoint x="220" y="350" as="targetPoint" />
            <Array as="points">
              <mxPoint x="260" y="300" />
            </Array>
          </mxGeometry>
        </mxCell>
        <mxCell id="nl1axL1jYFWtOBtzVMSo-7" value="" style="endArrow=none;dashed=1;html=1;entryX=0;entryY=0.5;entryDx=0;entryDy=0;" parent="1" target="5sOJKM208ey0AX1m5c1y-11" edge="1">
          <mxGeometry width="50" height="50" relative="1" as="geometry">
            <mxPoint x="260" y="350" as="sourcePoint" />
            <mxPoint x="420" y="500" as="targetPoint" />
            <Array as="points">
              <mxPoint x="260" y="450" />
            </Array>
          </mxGeometry>
        </mxCell>
        <mxCell id="Fo9DGI8NvoBTCOg1Upvk-2" value="&lt;font style=&quot;font-size: 8px&quot;&gt;mambaorg/&lt;/font&gt;" style="text;html=1;strokeColor=none;fillColor=none;align=center;verticalAlign=middle;whiteSpace=wrap;rounded=0;" parent="1" vertex="1">
          <mxGeometry x="320" y="100" width="40" height="20" as="geometry" />
        </mxCell>
        <mxCell id="Fo9DGI8NvoBTCOg1Upvk-4" value="" style="endArrow=classic;html=1;entryX=0.5;entryY=1;entryDx=0;entryDy=0;exitX=1;exitY=0.5;exitDx=0;exitDy=0;" parent="1" source="5sOJKM208ey0AX1m5c1y-35" edge="1">
          <mxGeometry width="50" height="50" relative="1" as="geometry">
            <mxPoint x="220" y="410" as="sourcePoint" />
            <mxPoint x="340" y="300" as="targetPoint" />
            <Array as="points">
              <mxPoint x="230" y="320" />
              <mxPoint x="240" y="320" />
              <mxPoint x="340" y="320" />
            </Array>
          </mxGeometry>
        </mxCell>
        <mxCell id="Fo9DGI8NvoBTCOg1Upvk-5" value="" style="rounded=1;whiteSpace=wrap;html=1;fillColor=#f8cecc;strokeColor=#b85450;" parent="1" vertex="1">
          <mxGeometry x="420" y="380" width="120" height="60" as="geometry" />
        </mxCell>
        <mxCell id="Fo9DGI8NvoBTCOg1Upvk-6" value="&lt;font style=&quot;font-size: 8px&quot;&gt;moonvision/&lt;/font&gt;" style="text;html=1;strokeColor=none;fillColor=none;align=center;verticalAlign=middle;whiteSpace=wrap;rounded=0;" parent="1" vertex="1">
          <mxGeometry x="460" y="380" width="40" height="20" as="geometry" />
        </mxCell>
        <mxCell id="Fo9DGI8NvoBTCOg1Upvk-7" value="&lt;font style=&quot;font-size: 14px&quot;&gt;moonbox:&lt;/font&gt;" style="text;html=1;strokeColor=none;fillColor=none;align=center;verticalAlign=middle;whiteSpace=wrap;rounded=0;" parent="1" vertex="1">
          <mxGeometry x="420" y="400" width="120" height="20" as="geometry" />
        </mxCell>
        <mxCell id="Fo9DGI8NvoBTCOg1Upvk-8" value="mini" style="text;html=1;strokeColor=none;fillColor=none;align=center;verticalAlign=middle;whiteSpace=wrap;rounded=0;fontColor=#000000;" parent="1" vertex="1">
          <mxGeometry x="460" y="420" width="40" height="20" as="geometry" />
        </mxCell>
        <mxCell id="Fo9DGI8NvoBTCOg1Upvk-9" value="" style="rounded=1;whiteSpace=wrap;html=1;fillColor=#d5e8d4;strokeColor=#82b366;" parent="1" vertex="1">
          <mxGeometry x="570" y="380" width="120" height="60" as="geometry" />
        </mxCell>
        <mxCell id="Fo9DGI8NvoBTCOg1Upvk-10" value="&lt;font style=&quot;font-size: 8px&quot;&gt;moonvision/&lt;/font&gt;" style="text;html=1;strokeColor=none;fillColor=none;align=center;verticalAlign=middle;whiteSpace=wrap;rounded=0;" parent="1" vertex="1">
          <mxGeometry x="610" y="380" width="40" height="20" as="geometry" />
        </mxCell>
        <mxCell id="Fo9DGI8NvoBTCOg1Upvk-11" value="&lt;font style=&quot;font-size: 14px&quot;&gt;moonbox:&lt;/font&gt;" style="text;html=1;strokeColor=none;fillColor=none;align=center;verticalAlign=middle;whiteSpace=wrap;rounded=0;" parent="1" vertex="1">
          <mxGeometry x="570" y="400" width="120" height="20" as="geometry" />
        </mxCell>
        <mxCell id="Fo9DGI8NvoBTCOg1Upvk-12" value="cuda" style="text;html=1;strokeColor=none;fillColor=none;align=center;verticalAlign=middle;whiteSpace=wrap;rounded=0;fontColor=#000000;" parent="1" vertex="1">
          <mxGeometry x="610" y="420" width="40" height="20" as="geometry" />
        </mxCell>
        <mxCell id="Fo9DGI8NvoBTCOg1Upvk-13" value="" style="rounded=1;whiteSpace=wrap;html=1;fillColor=#ffe6cc;strokeColor=#d79b00;" parent="1" vertex="1">
          <mxGeometry x="570" y="180" width="120" height="60" as="geometry" />
        </mxCell>
        <mxCell id="Fo9DGI8NvoBTCOg1Upvk-14" value="&lt;font style=&quot;font-size: 8px&quot;&gt;moonvision/&lt;/font&gt;" style="text;html=1;strokeColor=none;fillColor=none;align=center;verticalAlign=middle;whiteSpace=wrap;rounded=0;" parent="1" vertex="1">
          <mxGeometry x="610" y="180" width="40" height="20" as="geometry" />
        </mxCell>
        <mxCell id="Fo9DGI8NvoBTCOg1Upvk-15" value="&lt;font style=&quot;font-size: 14px&quot;&gt;custom-builds:&lt;/font&gt;" style="text;html=1;strokeColor=none;fillColor=none;align=center;verticalAlign=middle;whiteSpace=wrap;rounded=0;" parent="1" vertex="1">
          <mxGeometry x="570" y="200" width="120" height="20" as="geometry" />
        </mxCell>
        <mxCell id="Fo9DGI8NvoBTCOg1Upvk-16" value="" style="rounded=1;whiteSpace=wrap;html=1;fillColor=#ffe6cc;strokeColor=#d79b00;" parent="1" vertex="1">
          <mxGeometry x="570" y="260" width="120" height="60" as="geometry" />
        </mxCell>
        <mxCell id="Fo9DGI8NvoBTCOg1Upvk-17" value="&lt;font style=&quot;font-size: 8px&quot;&gt;moonvision/&lt;/font&gt;" style="text;html=1;strokeColor=none;fillColor=none;align=center;verticalAlign=middle;whiteSpace=wrap;rounded=0;" parent="1" vertex="1">
          <mxGeometry x="610" y="260" width="40" height="20" as="geometry" />
        </mxCell>
        <mxCell id="Fo9DGI8NvoBTCOg1Upvk-18" value="&lt;font style=&quot;font-size: 14px&quot;&gt;custom-builds:&lt;/font&gt;" style="text;html=1;strokeColor=none;fillColor=none;align=center;verticalAlign=middle;whiteSpace=wrap;rounded=0;" parent="1" vertex="1">
          <mxGeometry x="570" y="280" width="120" height="20" as="geometry" />
        </mxCell>
        <mxCell id="Fo9DGI8NvoBTCOg1Upvk-19" value="ffmpeg-cuda" style="text;html=1;strokeColor=none;fillColor=none;align=center;verticalAlign=middle;whiteSpace=wrap;rounded=0;" parent="1" vertex="1">
          <mxGeometry x="595" y="220" width="70" height="20" as="geometry" />
        </mxCell>
        <mxCell id="Fo9DGI8NvoBTCOg1Upvk-20" value="pytorch-cuda" style="text;html=1;strokeColor=none;fillColor=none;align=center;verticalAlign=middle;whiteSpace=wrap;rounded=0;" parent="1" vertex="1">
          <mxGeometry x="590" y="300" width="80" height="20" as="geometry" />
        </mxCell>
        <mxCell id="Fo9DGI8NvoBTCOg1Upvk-22" value="" style="endArrow=none;dashed=1;html=1;exitX=1;exitY=0.5;exitDx=0;exitDy=0;endFill=0;startArrow=classic;startFill=1;entryX=1;entryY=0.5;entryDx=0;entryDy=0;" parent="1" source="Fo9DGI8NvoBTCOg1Upvk-15" target="Fo9DGI8NvoBTCOg1Upvk-11" edge="1">
          <mxGeometry width="50" height="50" relative="1" as="geometry">
            <mxPoint x="710" y="410" as="sourcePoint" />
            <mxPoint x="910" y="610" as="targetPoint" />
            <Array as="points">
              <mxPoint x="730" y="220" />
              <mxPoint x="730" y="410" />
            </Array>
          </mxGeometry>
        </mxCell>
        <mxCell id="Fo9DGI8NvoBTCOg1Upvk-23" value="" style="endArrow=none;dashed=1;html=1;exitX=1;exitY=0.5;exitDx=0;exitDy=0;endFill=0;startArrow=classic;startFill=1;entryX=1;entryY=0.5;entryDx=0;entryDy=0;" parent="1" source="Fo9DGI8NvoBTCOg1Upvk-16" edge="1">
          <mxGeometry width="50" height="50" relative="1" as="geometry">
            <mxPoint x="690" y="210" as="sourcePoint" />
            <mxPoint x="690" y="410" as="targetPoint" />
            <Array as="points">
              <mxPoint x="730" y="300" />
              <mxPoint x="730" y="410" />
            </Array>
          </mxGeometry>
        </mxCell>
        <mxCell id="Fo9DGI8NvoBTCOg1Upvk-24" value="" style="endArrow=classic;html=1;entryX=0.5;entryY=1;entryDx=0;entryDy=0;exitX=0;exitY=0.5;exitDx=0;exitDy=0;" parent="1" source="Fo9DGI8NvoBTCOg1Upvk-15" target="5sOJKM208ey0AX1m5c1y-1" edge="1">
          <mxGeometry width="50" height="50" relative="1" as="geometry">
            <mxPoint x="365" y="210" as="sourcePoint" />
            <mxPoint x="485" y="160" as="targetPoint" />
            <Array as="points">
              <mxPoint x="340" y="180" />
            </Array>
          </mxGeometry>
        </mxCell>
        <mxCell id="Fo9DGI8NvoBTCOg1Upvk-27" value="" style="endArrow=classic;html=1;entryX=0.5;entryY=1;entryDx=0;entryDy=0;exitX=0;exitY=0.5;exitDx=0;exitDy=0;" parent="1" source="Fo9DGI8NvoBTCOg1Upvk-18" target="5sOJKM208ey0AX1m5c1y-18" edge="1">
          <mxGeometry width="50" height="50" relative="1" as="geometry">
            <mxPoint x="425" y="290" as="sourcePoint" />
            <mxPoint x="545" y="300" as="targetPoint" />
            <Array as="points">
              <mxPoint x="550" y="320" />
              <mxPoint x="445" y="320" />
              <mxPoint x="340" y="320" />
            </Array>
          </mxGeometry>
        </mxCell>
      </root>
    </mxGraphModel>
  </diagram>
</mxfile>
